{"title":"Mistress.America.2015.BRRip.480p.x264.AAC-VYTO [P2PDL]","uid":12910844,"size":322887867,"categoryP":"video","categoryS":"movies","magnet":"?xt=urn:btih:f5a2ea775f0538747491cf1087a339772375701b&amp;dn=Mistress.America.2015.BRRip.480p.x264.AAC-VYTO+%5BP2PDL%5D&amp;tr=udp%3A%2F%2Ftracker.leechers-paradise.org%3A6969&amp;tr=udp%3A%2F%2Fzer0day.ch%3A1337&amp;tr=udp%3A%2F%2Fopen.demonii.com%3A1337&amp;tr=udp%3A%2F%2Ftracker.coppersurfer.tk%3A6969&amp;tr=udp%3A%2F%2Fexodus.desync.com%3A6969","seeders":2,"leechers":0,"uploader":"VYTOP2PDL","files":7,"time":1449298329,"description":"Mistress.America.2015.BRRip.480p.x264.AAC-VYTO\r\n\r\n\r\nGenre: Comedy \nhttp://www.imdb.com/title/tt2872462/\r\n\r\n\r\nGeneral\r\nFormat                         : MPEG-4\r\nFile size                      : 301 MiB\r\nDuration                       : 1h 24mn\r\nOverall bit rate               : 499 Kbps\r\n\r\nVideo1\r\nFormat                         : AVC\r\nBit rate                       : 464 Kbps\r\nWidth                          : 720 pixels\r\nHeight                         : 384 pixels\r\nDisplay aspect ratio           : 1.85:1\r\nFrame rate mode                : Constant\r\nFrame rate                     : 23.976 fps\r\nBit depth                      : 8 bits\r\nStream size                    : 280 MiB (93%)\r\nWriting library                : x264\r\n\r\nAudio\r\nFormat                         : AAC\r\nBit rate mode                  : Variable\r\nBit rate                       : 32.0 Kbps\r\nChannel(s)                     : 2 channels\r\nChannel positions              : Front: L R\r\nSampling rate                  : 48.0 KHz\r\nStream size                    : 19.3 MiB (6%)\r\nLanguage                       : English\r\n\r\nSubtitle                       : Yes (English)\r\n \nhttp://ititli.com/xR \nhttp://ititli.com/xy \nhttp://ititli.com/x3 \nhttp://ititli.com/xE \nhttp://ititli.com/xQ \nhttp://ititli.com/xS \nhttp://ititli.com/xZ \nhttp://ititli.com/xc \nhttp://ititli.com/xi\r\n\r\n\r\n----------------------------------------------------------------------------------------------------\r\n\r\n\r\nEncoder Notes: Looking For Early Access To Anything You Can Provide DVDScr, R5, DVDR, BluRay, Direct\r\nAudio, Music Releases and Seedboxes. If You Got anything to offer please contact us.\r\n\r\nSupport us by donating BC - 1FgwdzPsd1y25Gea8wP1qni35uGCtmkRCD","torrent":{"xt":"urn:btih:f5a2ea775f0538747491cf1087a339772375701b","amp;dn":"Mistress.America.2015.BRRip.480p.x264.AAC-VYTO+%5BP2PDL%5D","amp;tr":["udp%3A%2F%2Ftracker.leechers-paradise.org%3A6969","udp%3A%2F%2Fzer0day.ch%3A1337","udp%3A%2F%2Fopen.demonii.com%3A1337","udp%3A%2F%2Ftracker.coppersurfer.tk%3A6969","udp%3A%2F%2Fexodus.desync.com%3A6969"],"infoHash":"f5a2ea775f0538747491cf1087a339772375701b","infoHashBuffer":{"type":"Buffer","data":[245,162,234,119,95,5,56,116,116,145,207,16,135,163,57,119,35,117,112,27]},"announce":[],"urlList":[]}}